<svg xmlns="http://www.w3.org/2000/svg" version="1.1" viewBox="-5.0 -10.0 110.0 135.0">
 <path d="m22.188 57.906c-10.688-6-16.75-22.062-5.2031-27.578 2.8711-1.0039 5.9922-1.0469 8.8906-0.125l0.40625-3c-6.9219-2.0156-14.531 0.375-17.344 7.0781-3.4688 8.1719 1.3594 19.672 10.781 25.656 0.65625 0.42969 1.3398 0.8125 2.0469 1.1562z"/>
 <path d="m43.219 44c0.85938-2.9062 0.6875-5.8594-2.75-6.4531-0.875 2.9219-0.67188 5.8438 2.75 6.4531z"/>
 <path d="m57.094 47.562c0.80078-1.4219 1.0938-3.0781 0.82812-4.6875-1.1172-0.21094-2.2734 0.10547-3.125 0.85938-0.78516 1.4336-1.0664 3.0898-0.79688 4.7031 1.1133 0.21094 2.2578-0.11328 3.0938-0.875z"/>
 <path d="m91.453 31.875-6.5156-9.5312c-0.67188-1.125-1.9531-1.7422-3.25-1.5625-1.3828 0.25391-2.4883 1.293-2.8281 2.6562l-1.5625 5.0781c-0.20703 0.73828-0.59375 1.4141-1.125 1.9688l-6.9219 7.0156-2.0625-15.797c-0.15625-1.8359-1.6445-3.2734-3.4844-3.3594h-31.719c-1.832 0.097656-3.3086 1.5312-3.4531 3.3594l-7.3906 55.391c-0.20312 1.0742 0.0625 2.1875 0.72656 3.0586 0.66406 0.87109 1.668 1.418 2.7578 1.5039h46.422c1.0898-0.089844 2.0859-0.64062 2.75-1.5117 0.66016-0.86719 0.92188-1.9766 0.71875-3.0508l-3.2812-24.594 12.172-12.406c0.42578-0.44922 0.96484-0.77344 1.5625-0.9375l4.3594-1c2.6875-0.53125 3.6719-4.2188 2.125-6.2812zm-53.406 3.4375 0.39062-0.9375h1.0469c0.20312 0 4.8125 0.1875 6.5156 3.6719 1.2969 2.6562 0.375 6.1562-0.10938 7.5781 0.98438 3.582 1.6641 7.2422 2.0312 10.938 0.88281-2.4609 1.9258-4.8633 3.125-7.1875-0.1875-1.4688-0.4375-5.2656 1.4375-7.5312 2.4219-2.9375 6.9844-1.7344 7.1875-1.6875l0.90625 0.25 0.17188 0.95312c0.75 4.0156 0 10.938-7.3125 10-1.8633 3.6836-3.3047 7.5703-4.2969 11.578-0.20703 0.79297-0.99219 1.2891-1.7969 1.1406-0.85547 0.12109-1.6445-0.47266-1.7656-1.3281-0.42969-5.2578-1.2227-10.477-2.375-15.625-7.0469-1.0938-6.9062-7.6719-5.1562-11.812z"/>
<text x="0.0" y="117.5" font-size="5.0" font-weight="bold" font-family="Arbeit Regular, Helvetica, Arial-Unicode, Arial, Sans-serif" fill="#000000">Created by Ricky Dermawan</text><text x="0.0" y="122.5" font-size="5.0" font-weight="bold" font-family="Arbeit Regular, Helvetica, Arial-Unicode, Arial, Sans-serif" fill="#000000">from Noun Project</text></svg>