<svg xmlns="http://www.w3.org/2000/svg" xmlns:xlink="http://www.w3.org/1999/xlink" version="1.1" x="0px" y="0px" viewBox="0 0 95 118.75" style="enable-background:new 0 0 95 95;" xml:space="preserve"><style type="text/css">
	.st0{fill-rule:evenodd;clip-rule:evenodd;}
</style><path d="M86.37,30.13c0-1.71-0.66-3.31-1.86-4.51c-2.49-2.48-6.53-2.48-9.01,0l-3.42,3.42c-5.02-4.49-11.28-7.62-18.19-8.83V9.34  h3.13c2.15,0,3.9-1.75,3.9-3.9c0-2.15-1.75-3.9-3.9-3.9H38.01c-2.15,0-3.9,1.75-3.9,3.9c0,2.15,1.75,3.9,3.9,3.9h3.13v10.88  c-6.92,1.21-13.18,4.35-18.21,8.84l-3.44-3.44c-2.43-2.42-6.33-2.48-8.83-0.17l-0.18,0.17c-2.48,2.48-2.48,6.53,0,9.01l4.5,4.5  c-2.79,5.19-4.38,11.13-4.38,17.42c0,20.35,16.55,36.91,36.9,36.91c20.35,0,36.9-16.56,36.9-36.91c0-6.31-1.59-12.25-4.39-17.45  l4.48-4.48C85.7,33.44,86.37,31.84,86.37,30.13z M36.98,5.43c0-0.57,0.46-1.03,1.03-1.03h19.01c0.57,0,1.03,0.46,1.03,1.03  c0,0.57-0.46,1.03-1.03,1.03H38.01C37.44,6.46,36.98,6,36.98,5.43z M44.02,9.34h7v10.49c-1.15-0.11-2.32-0.17-3.5-0.17  c-1.18,0-2.35,0.06-3.5,0.17V9.34z M12.48,27.71l0.05-0.05c1.36-1.36,3.58-1.36,4.95,0l3.39,3.39c-1.63,1.7-3.09,3.55-4.37,5.53  l-3.97-3.97C11.18,31.26,11.16,29.08,12.48,27.71z M47.52,90.6c-18.76,0-34.03-15.27-34.03-34.03c0-6.4,1.78-12.39,4.86-17.51  c0.09-0.16,0.19-0.31,0.29-0.47c0.45-0.71,0.92-1.41,1.41-2.09c0.09-0.12,0.17-0.24,0.26-0.35c0.28-0.37,0.56-0.72,0.85-1.08  c0.11-0.14,0.23-0.27,0.34-0.4c0.56-0.66,1.14-1.3,1.74-1.91c0.09-0.09,0.17-0.18,0.26-0.27c5.1-5.09,11.81-8.56,19.28-9.61h9.46  c7.47,1.04,14.17,4.51,19.27,9.59c0.11,0.11,0.21,0.22,0.31,0.32c0.59,0.6,1.15,1.22,1.7,1.87c0.11,0.13,0.23,0.27,0.34,0.4  c0.29,0.35,0.57,0.71,0.85,1.08c0.09,0.12,0.17,0.24,0.26,0.36c0.49,0.68,0.96,1.37,1.41,2.08c0.1,0.16,0.2,0.31,0.29,0.47  c3.09,5.12,4.87,11.11,4.87,17.52C81.55,75.33,66.28,90.6,47.52,90.6z M82.47,32.61l-3.94,3.94c-1.28-1.97-2.74-3.82-4.37-5.52  l3.37-3.37c1.36-1.36,3.58-1.36,4.95,0c0.66,0.66,1.02,1.53,1.02,2.47C83.49,31.07,83.13,31.95,82.47,32.61z M72.34,70.73  c2.39-4.18,3.77-9.01,3.77-14.16c0-5.15-1.38-9.99-3.77-14.17c-0.02-0.04-0.03-0.08-0.06-0.12c-0.02-0.04-0.05-0.07-0.08-0.11  c-2.49-4.24-6.03-7.79-10.28-10.28c-0.04-0.03-0.07-0.06-0.11-0.08c-0.04-0.02-0.08-0.04-0.13-0.06c-4.18-2.4-9.02-3.77-14.17-3.77  c-5.16,0-9.99,1.38-14.18,3.78c-0.04,0.02-0.08,0.03-0.12,0.05c-0.04,0.02-0.07,0.05-0.1,0.07c-4.25,2.49-7.8,6.04-10.29,10.29  c-0.02,0.03-0.05,0.06-0.07,0.1c-0.02,0.04-0.03,0.08-0.05,0.12c-2.4,4.18-3.78,9.02-3.78,14.18c0,5.16,1.38,9.99,3.78,14.17  c0.02,0.04,0.03,0.08,0.06,0.12c0.02,0.03,0.04,0.05,0.06,0.08c2.49,4.26,6.04,7.82,10.3,10.31c0.04,0.02,0.07,0.05,0.1,0.08  c0.03,0.02,0.06,0.02,0.09,0.04c4.19,2.41,9.03,3.79,14.2,3.79c5.16,0,10.01-1.38,14.2-3.79c0.03-0.02,0.07-0.02,0.1-0.04  c0.04-0.02,0.07-0.05,0.11-0.08c4.25-2.49,7.8-6.05,10.29-10.3c0.02-0.03,0.05-0.05,0.06-0.08C72.3,70.82,72.32,70.77,72.34,70.73z   M61.59,78.07l-1.91-3.31c-0.4-0.69-1.27-0.92-1.96-0.53c-0.69,0.4-0.92,1.28-0.53,1.96l1.91,3.31c-3.08,1.56-6.52,2.53-10.15,2.73  v-3.83c0-0.79-0.64-1.44-1.44-1.44s-1.44,0.64-1.44,1.44v3.83c-3.64-0.2-7.07-1.17-10.15-2.73l1.91-3.31  c0.4-0.69,0.16-1.57-0.53-1.96c-0.68-0.4-1.57-0.16-1.96,0.53l-1.91,3.31c-2.96-1.94-5.49-4.47-7.43-7.43l3.31-1.91  c0.69-0.4,0.92-1.28,0.53-1.96c-0.4-0.69-1.28-0.92-1.96-0.53l-3.31,1.91c-1.56-3.08-2.53-6.52-2.73-10.15h3.83  c0.79,0,1.44-0.64,1.44-1.44s-0.64-1.44-1.44-1.44h-3.83c0.2-3.64,1.17-7.07,2.73-10.15l3.31,1.91c0.23,0.13,0.47,0.19,0.72,0.19  c0.5,0,0.98-0.26,1.25-0.72c0.4-0.69,0.16-1.57-0.53-1.96l-3.31-1.91c1.94-2.96,4.47-5.49,7.43-7.43l1.91,3.31  c0.27,0.46,0.75,0.72,1.25,0.72c0.24,0,0.49-0.06,0.72-0.19c0.69-0.4,0.92-1.28,0.53-1.96l-1.91-3.31  c3.08-1.56,6.52-2.53,10.15-2.73v3.83c0,0.79,0.64,1.44,1.44,1.44s1.44-0.64,1.44-1.44v-3.83c3.64,0.2,7.07,1.17,10.15,2.73  l-1.91,3.31c-0.4,0.69-0.16,1.57,0.53,1.96c0.23,0.13,0.47,0.19,0.72,0.19c0.5,0,0.98-0.26,1.25-0.72l1.91-3.31  c2.96,1.94,5.49,4.47,7.43,7.43l-3.31,1.91c-0.69,0.4-0.92,1.28-0.53,1.96c0.27,0.46,0.75,0.72,1.25,0.72  c0.24,0,0.49-0.06,0.72-0.19l3.31-1.91c1.56,3.08,2.53,6.52,2.73,10.15h-3.83c-0.79,0-1.44,0.64-1.44,1.44S68.57,58,69.36,58h3.83  c-0.2,3.64-1.17,7.07-2.73,10.15l-3.31-1.91c-0.69-0.39-1.56-0.16-1.96,0.53c-0.4,0.69-0.16,1.57,0.53,1.96l3.31,1.91  C67.08,73.6,64.55,76.13,61.59,78.07z M49.03,39.49v17.64c0,0.79-0.64,1.44-1.44,1.44h-15c-0.79,0-1.44-0.64-1.44-1.44  s0.64-1.44,1.44-1.44h13.56v-16.2c0-0.79,0.64-1.44,1.44-1.44S49.03,38.69,49.03,39.49z"/><text x="0" y="110" fill="#000000" font-size="5px" font-weight="bold" font-family="'Helvetica Neue', Helvetica, Arial-Unicode, Arial, Sans-serif">Created by Vior</text><text x="0" y="115" fill="#000000" font-size="5px" font-weight="bold" font-family="'Helvetica Neue', Helvetica, Arial-Unicode, Arial, Sans-serif">from the Noun Project</text></svg>