<svg xmlns="http://www.w3.org/2000/svg" xmlns:xlink="http://www.w3.org/1999/xlink" version="1.1" x="0px" y="0px" viewBox="0 0 1024 1280" style="enable-background:new 0 0 1024 1024;" xml:space="preserve"><g><g><g><path d="M264.8,324.1c4.6,4.6,9.2,9.2,13.7,13.7c12.5,12.5,24.9,24.9,37.4,37.4c18.4,18.4,36.9,36.9,55.3,55.3     c22.5,22.5,45,45,67.5,67.5c24.6,24.6,49.3,49.3,73.9,73.9c24.9,24.9,49.7,49.7,74.6,74.6c23.2,23.2,46.4,46.4,69.6,69.6     c19.6,19.6,39.2,39.2,58.8,58.8c14.1,14.1,28.2,28.2,42.3,42.3c6.7,6.7,13.3,13.4,20,20c0.3,0.3,0.6,0.6,0.9,0.9     c7.4-27.9,14.7-55.7,22.1-83.6c-1.8,0.3-3.7,0.6-5.5,0.8c4.4-0.6,8.9-1.2,13.3-1.8c-23.3,3-47.5,1.6-70.9,1.6     c-41.9,0-83.8,0-125.6,0c-51.1,0-102.2,0-153.3,0c-43.5,0-86.9,0-130.4,0c-18.9,0-37.8,0.1-56.7,0c-9.6,0-19.2-0.7-28.7-1.9     c4.4,0.6,8.9,1.2,13.3,1.8c-19.1-2.6-37.6-7.7-55.3-15.2c4,1.7,8,3.4,11.9,5c-17-7.3-32.9-16.6-47.6-27.9     c3.4,2.6,6.7,5.2,10.1,7.8c-14.6-11.4-27.6-24.4-39-39c2.6,3.4,5.2,6.7,7.8,10.1c-11.3-14.8-20.7-30.8-27.9-48     c1.7,4,3.4,8,5,11.9c-7.3-17.6-12.3-36-14.9-54.8c0.6,4.4,1.2,8.9,1.8,13.3c-2.4-18.9-2.5-37.9,0-56.8c-0.6,4.4-1.2,8.9-1.8,13.3     c2.6-19.1,7.6-37.7,15-55.5c-1.7,4-3.4,8-5,11.9c7.2-16.9,16.5-32.8,27.6-47.4c-2.6,3.4-5.2,6.7-7.8,10.1     c11.4-14.8,24.7-28,39.4-39.5c-3.4,2.6-6.7,5.2-10.1,7.8c14.6-11.2,30.4-20.5,47.3-27.7c-4,1.7-8,3.4-11.9,5     c9.2-3.9,18.6-7.1,28.3-9.7c4.7-1.2,9.4-2.3,14.1-3.3c2.5-0.5,5-0.9,7.5-1.3c12.3-2,22.5-8.7,30.1-18.5     c4.9-6.3,7.6-13.5,11.2-20.7c2.8-5.6,5.9-11.1,9.1-16.6c6.4-10.8,13.4-21.2,21-31.2c-2.6,3.4-5.2,6.7-7.8,10.1     c6.6-8.5,13.7-16.7,21.1-24.5c9-9.4,14.6-22.2,14.6-35.4c0-12.3-5.4-26.9-14.6-35.4c-9.5-8.7-22-15.2-35.4-14.6     c-13.1,0.6-26.1,4.9-35.4,14.6c-27.3,28.6-50.4,61.8-66.3,98c10-7.7,19.9-15.3,29.9-23c-31.1,4.4-61.7,15.8-88.9,31.3     C113,375,88.1,395.3,68.9,419.2c-10.8,13.4-21.1,27.2-29.4,42.3c-8.4,15.4-15.4,31.8-20.8,48.5c-5.6,17.3-8.4,35-10.6,53     c-1.8,14.7-2.1,29.5-1,44.3c3,37.9,12.8,73.6,30.5,107.4c14.8,28.4,35.9,54.9,60.5,75.6c29.8,25,63.2,44,100.7,54.8     c24.1,6.9,49.6,10.2,74.6,10.2c16,0,32,0,47.9,0c31.7,0,63.4,0,95.1,0c39.4,0,78.7,0,118.1,0c39.1,0,78.1,0,117.2,0     c30.4,0,60.7,0,91.1,0c13.7,0,27.4,0,41.1,0c14.6,0,29.1-1.9,43.6-4.2c8.5-2.4,15.8-6.7,22.1-12.9c6.2-6.2,10.5-13.6,12.9-22.1     c4.7-17.2-0.3-36-12.9-48.6c-4.6-4.6-9.2-9.2-13.7-13.7c-12.5-12.5-24.9-24.9-37.4-37.4c-18.4-18.4-36.9-36.9-55.3-55.3     c-22.5-22.5-45-45-67.5-67.5c-24.6-24.6-49.3-49.3-73.9-73.9c-24.9-24.9-49.7-49.7-74.6-74.6c-23.2-23.2-46.4-46.4-69.6-69.6     c-19.6-19.6-39.2-39.2-58.8-58.8c-14.1-14.1-28.2-28.2-42.3-42.3c-6.7-6.7-13.3-13.4-20-20c-0.3-0.3-0.6-0.6-0.9-0.9     c-9.1-9.1-22.5-14.6-35.4-14.6c-12.3,0-26.9,5.4-35.4,14.6c-8.7,9.5-15.2,22-14.6,35.4C250.8,302,255.3,314.5,264.8,324.1z"/></g></g><g><g><path d="M435.5,259.6c18.1-5.9,36.6-10.2,55.4-12.7c-4.4,0.6-8.9,1.2-13.3,1.8c26.4-3.4,53-3.4,79.4,0     c-4.4-0.6-8.9-1.2-13.3-1.8c26.6,3.6,52.5,10.7,77.2,21.1c-4-1.7-8-3.4-11.9-5c23.7,10.1,45.9,23.1,66.3,38.8     c-3.4-2.6-6.7-5.2-10.1-7.8c20.2,15.7,38.3,33.8,54,54c-2.6-3.4-5.2-6.7-7.8-10.1c16,20.7,29.3,43.4,39.5,67.5     c-1.7-4-3.4-8-5-11.9c8.2,19.5,14.2,39.8,18.2,60.6c2.9,15.3,19.3,32.4,34.9,34.9c14.6,2.3,28.7,6.3,42.4,12c-4-1.7-8-3.4-11.9-5     c15,6.3,29,14.6,41.9,24.5c-3.4-2.6-6.7-5.2-10.1-7.8c12.4,9.7,23.5,20.8,33.1,33.3c-2.6-3.4-5.2-6.7-7.8-10.1     c9.6,12.6,17.6,26.2,23.8,40.8c-1.7-4-3.4-8-5-11.9c6.2,14.9,10.4,30.5,12.6,46.5c-0.6-4.4-1.2-8.9-1.8-13.3     c2.1,16.3,2.1,32.6-0.1,48.9c0.6-4.4,1.2-8.9,1.8-13.3c-2.3,16-6.5,31.5-12.8,46.4c1.7-4,3.4-8,5-11.9     c-3.4,7.8-7.2,15.3-11.5,22.6c-6.6,11.1-8.5,26.1-5,38.5c3.2,11.6,12.2,24.2,23,29.9c11.6,6.1,25.7,9.2,38.5,5     c12.5-4,23.1-11.5,29.9-23c32.8-55.3,42-124.6,22.9-186.3c-16.8-54.1-52.5-100.3-100.2-130.7c-24.5-15.6-53.1-26.9-81.9-31.4     c11.6,11.6,23.3,23.3,34.9,34.9c-13.3-69.9-50.4-136.3-102.1-185c-25.9-24.4-55.6-45.6-87.8-60.8c-17.9-8.5-36.4-16-55.4-21.6     c-19.8-5.8-39.9-9-60.3-11.6c-20.7-2.6-41.6-3-62.4-1.4c-28.3,2.3-56.6,7.2-83.6,16.1c-12.3,4.1-23.2,11.6-29.9,23     c-6.3,10.7-8.9,26.5-5,38.5c3.9,12.1,11.4,23.8,23,29.9C408.6,260.6,422.7,263.8,435.5,259.6L435.5,259.6z"/></g></g><g><g><path d="M94.2,153.5c7,7,14.1,14.1,21.1,21.1c19.2,19.2,38.3,38.3,57.5,57.5c28.2,28.2,56.5,56.5,84.7,84.7     c34.4,34.4,68.9,68.9,103.3,103.3c37.7,37.7,75.4,75.4,113.1,113.1c38.2,38.2,76.4,76.4,114.6,114.6     c35.6,35.6,71.2,71.2,106.8,106.8c30,30,60,60,90,90c21.6,21.6,43.1,43.1,64.7,64.7c10.2,10.2,20.4,20.5,30.7,30.7     c0.4,0.4,0.9,0.9,1.3,1.3c9.1,9.1,22.5,14.6,35.4,14.6c12.3,0,26.9-5.4,35.4-14.6c8.7-9.5,15.2-22,14.6-35.4     c-0.6-13.3-5.1-25.8-14.6-35.4c-7-7-14.1-14.1-21.1-21.1c-19.2-19.2-38.3-38.3-57.5-57.5c-28.2-28.2-56.5-56.5-84.7-84.7     c-34.4-34.4-68.9-68.9-103.3-103.3c-37.7-37.7-75.4-75.4-113.1-113.1c-38.2-38.2-76.4-76.4-114.6-114.6     c-35.6-35.6-71.2-71.2-106.8-106.8c-30-30-60-60-90-90c-21.6-21.6-43.1-43.1-64.7-64.7c-10.2-10.2-20.4-20.5-30.7-30.7     c-0.4-0.4-0.9-0.9-1.3-1.3c-9.1-9.1-22.5-14.6-35.4-14.6c-12.3,0-26.9,5.4-35.4,14.6c-8.7,9.5-15.2,22-14.6,35.4     C80.2,131.4,84.7,143.9,94.2,153.5L94.2,153.5z"/></g></g></g><text x="0" y="1039" fill="#000000" font-size="5px" font-weight="bold" font-family="'Helvetica Neue', Helvetica, Arial-Unicode, Arial, Sans-serif">Created by shashank singh</text><text x="0" y="1044" fill="#000000" font-size="5px" font-weight="bold" font-family="'Helvetica Neue', Helvetica, Arial-Unicode, Arial, Sans-serif">from the Noun Project</text></svg>