<svg xmlns="http://www.w3.org/2000/svg" xmlns:xlink="http://www.w3.org/1999/xlink" version="1.1" x="0px" y="0px" viewBox="0 0 1024 1280" style="enable-background:new 0 0 1024 1024;" xml:space="preserve"><g><g><path d="M917.6,633.2c0,8.2-0.6,16.4-1.6,24.5c0.6-4.4,1.2-8.9,1.8-13.3c-2.2,15.8-6.4,31.2-12.5,45.9    c1.7-4,3.4-8,5-11.9c-6.3,14.9-14.5,28.8-24.3,41.6c2.6-3.4,5.2-6.7,7.8-10.1c-9.6,12.2-20.5,23.2-32.8,32.8    c3.4-2.6,6.7-5.2,10.1-7.8c-12.8,9.9-26.7,18-41.6,24.3c4-1.7,8-3.4,11.9-5c-14.7,6.1-30.1,10.3-45.9,12.5    c4.4-0.6,8.9-1.2,13.3-1.8c-22.9,3-46.8,1.6-69.9,1.6c-41.8,0-83.6,0-125.4,0c-51.3,0-102.5,0-153.8,0c-43.8,0-87.6,0-131.4,0    c-18.9,0-37.8,0.1-56.7,0c-9.6,0-19.2-0.7-28.7-1.9c4.4,0.6,8.9,1.2,13.3,1.8c-19.1-2.6-37.6-7.7-55.3-15.2c4,1.7,8,3.4,11.9,5    c-4.7-2-9.4-4.2-14-6.5c3.4,2.6,6.7,5.2,10.1,7.8c-7.7-7.3-17.4-11.4-26.3-17c-6-3.8-11.8-7.9-17.5-12.2c3.4,2.6,6.7,5.2,10.1,7.8    c-14.6-11.4-27.6-24.4-39-39c2.6,3.4,5.2,6.7,7.8,10.1c-11.3-14.8-20.7-30.8-27.9-48c1.7,4,3.4,8,5,11.9    c-7.3-17.6-12.3-36-14.9-54.8c0.6,4.4,1.2,8.9,1.8,13.3c-2.4-18.9-2.5-37.9,0-56.8c-0.6,4.4-1.2,8.9-1.8,13.3    c2.6-19.1,7.6-37.7,15-55.5c-1.7,4-3.4,8-5,11.9c7.2-16.9,16.5-32.8,27.6-47.4c-2.6,3.4-5.2,6.7-7.8,10.1    c11.4-14.8,24.7-28,39.4-39.5c-3.4,2.6-6.7,5.2-10.1,7.8c14.6-11.2,30.4-20.5,47.3-27.7c-4,1.7-8,3.4-11.9,5    c10-4.2,20.4-7.7,30.9-10.4c5.4-1.4,10.8-2.5,16.2-3.4c6.7-1.2,12.7-2.9,18.8-6.1c9.9-5.2,16.1-14,20.5-23.8    c9.5-20.7,21.4-40.2,35.3-58.2c-2.6,3.4-5.2,6.7-7.8,10.1c15.8-20.3,34-38.5,54.4-54.2c-3.4,2.6-6.7,5.2-10.1,7.8    c20.5-15.7,42.9-28.8,66.8-38.9c-4,1.7-8,3.4-11.9,5c24.4-10.2,50.1-17.2,76.3-20.7c-4.4,0.6-8.9,1.2-13.3,1.8    c26.5-3.5,53.4-3.5,80,0c-4.4-0.6-8.9-1.2-13.3-1.8c26.6,3.6,52.5,10.7,77.2,21.1c-4-1.7-8-3.4-11.9-5    c23.7,10.1,45.9,23.1,66.3,38.8c-3.4-2.6-6.7-5.2-10.1-7.8c20.2,15.7,38.3,33.8,54,54c-2.6-3.4-5.2-6.7-7.8-10.1    c16,20.7,29.3,43.4,39.5,67.5c-1.7-4-3.4-8-5-11.9c8.2,19.5,14.2,39.8,18.2,60.6c2.9,15.3,19.3,32.4,34.9,34.9    c14.6,2.3,28.7,6.3,42.4,12c-4-1.7-8-3.4-11.9-5c15,6.3,29,14.6,41.9,24.5c-3.4-2.6-6.7-5.2-10.1-7.8    c12.4,9.7,23.5,20.8,33.1,33.3c-2.6-3.4-5.2-6.7-7.8-10.1c9.6,12.6,17.6,26.2,23.8,40.8c-1.7-4-3.4-8-5-11.9    c6.2,14.9,10.4,30.5,12.6,46.5c-0.6-4.4-1.2-8.9-1.8-13.3C917,617.1,917.6,625.1,917.6,633.2c0.1,12.9,5.5,26.3,14.6,35.4    c8.7,8.7,22.9,15.2,35.4,14.6c12.9-0.6,26.3-4.8,35.4-14.6c9-9.8,14.7-21.8,14.6-35.4c-0.2-42.7-12-86-34.8-122.2    c-22-35.1-53.5-65.5-90.6-84.4c-21-10.7-43.4-19-66.6-22.7c11.6,11.6,23.3,23.3,34.9,34.9c-5.4-28.5-15.2-55.6-27.4-81.9    c-12-26-27.9-49.2-45.7-71.5c-16.5-20.7-35.7-38.5-56.6-54.7c-21-16.3-43.3-30.4-67.6-41.1c-26.4-11.6-53.3-21.1-81.8-26    c-29.9-5.1-60.1-7.6-90.4-5c-59.7,5.2-118.3,23.8-168,57.7c-48.3,33-89.4,77-116.3,129.2c-2.9,5.7-5.6,11.4-8.2,17.3    c10-7.7,19.9-15.3,29.9-23c-17.7,2.5-35,7.1-51.5,13.9c-19.9,8.2-38.9,17.1-56.4,29.8c-34.4,24.9-63.9,56.2-83.5,94.1    C16.9,516.7,5.8,560.2,6.4,604.3c0.6,45.8,13.1,91.6,36.4,131.1c24.8,42.2,62.1,78.2,105.6,100.7c-3.4-2.6-6.7-5.2-10.1-7.8    c10.1,9.5,23.5,14.2,36,19.4c6.9,2.9,13.9,5.5,21.1,7.7c17.7,5.4,36.2,8.2,54.6,10.1c8.4,0.8,16.8,1.1,25.3,1.1    c13.1,0,26.3,0,39.4,0c55,0,110,0,165.1,0c63.7,0,127.4,0,191.1,0c36.8,0,73.6,0,110.4,0c42.9,0,85.6-10.8,122.4-33    c53.9-32.5,95.4-87.8,108.3-149.8c3.4-16.5,5.5-33.6,5.6-50.5c0.1-12.8-5.6-26.3-14.6-35.4c-8.7-8.7-22.9-15.2-35.4-14.6    C940.4,584.4,917.7,605.2,917.6,633.2z"/></g></g><g><g><path d="M611.8,421.2c-20,20-40,40-60,60c-31.9,31.9-63.8,63.8-95.7,95.7c-7.3,7.3-14.7,14.7-22,22    c23.6,0,47.1,0,70.7,0c-27-27-54-54-81-81c-3.8-3.8-7.7-7.7-11.5-11.5c-9.1-9.1-22.5-14.6-35.4-14.6c-12.3,0-26.9,5.4-35.4,14.6    c-8.7,9.5-15.2,22-14.6,35.4c0.6,13.3,5.1,25.8,14.6,35.4c27,27,54,54,81,81c3.8,3.8,7.7,7.7,11.5,11.5    c19.1,19.1,51.6,19.1,70.7,0c20-20,40-40,60-60c31.9-31.9,63.8-63.8,95.7-95.7c7.3-7.3,14.7-14.7,22-22    c9.1-9.1,14.6-22.5,14.6-35.4c0-12.3-5.4-26.9-14.6-35.4c-9.5-8.7-22-15.2-35.4-14.6C633.9,407.1,621.3,411.6,611.8,421.2    L611.8,421.2z"/></g></g><text x="0" y="1039" fill="#000000" font-size="5px" font-weight="bold" font-family="'Helvetica Neue', Helvetica, Arial-Unicode, Arial, Sans-serif">Created by shashank singh</text><text x="0" y="1044" fill="#000000" font-size="5px" font-weight="bold" font-family="'Helvetica Neue', Helvetica, Arial-Unicode, Arial, Sans-serif">from the Noun Project</text></svg>